<?xml version="1.0" standalone="no"?>
<!DOCTYPE svg PUBLIC "-//W3C//DTD SVG 20010904//EN"
 "http://www.w3.org/TR/2001/REC-SVG-20010904/DTD/svg10.dtd">
<svg version="1.0" xmlns="http://www.w3.org/2000/svg"
 width="626.000000pt" height="626.000000pt" viewBox="0 0 626.000000 626.000000"
 preserveAspectRatio="xMidYMid meet">

<g transform="translate(0.000000,626.000000) scale(0.100000,-0.100000)"
fill="#000000" stroke="none">
<path d="M3130 4325 c0 -602 2 -685 15 -685 13 0 15 83 15 685 0 602 -2 685
-15 685 -13 0 -15 -83 -15 -685z"/>
<path d="M2691 4941 c-10 -7 21 -136 149 -612 202 -756 189 -709 206 -709 8 0
14 6 14 13 0 7 -29 121 -64 253 -35 131 -112 419 -171 639 -59 220 -110 405
-114 412 -4 7 -12 9 -20 4z"/>
<path d="M3572 4913 c-11 -37 -254 -945 -313 -1168 -34 -129 -34 -127 -12
-123 13 2 54 142 193 660 172 641 178 668 146 668 -2 0 -8 -17 -14 -37z"/>
<path d="M2272 4767 c-9 -11 63 -143 327 -601 187 -323 341 -590 344 -592 2
-3 9 2 15 9 9 11 -63 144 -327 601 -187 323 -341 589 -344 592 -2 2 -9 -2 -15
-9z"/>
<path d="M3963 4706 c-80 -139 -222 -385 -426 -739 -114 -196 -208 -363 -210
-369 -1 -7 5 -13 13 -15 11 -2 115 169 353 581 185 322 337 589 337 595 0 5
-6 11 -13 14 -8 3 -28 -23 -54 -67z"/>
<path d="M1912 4488 c-10 -10 85 -110 470 -495 266 -266 486 -483 489 -483 37
0 -34 78 -465 509 -384 384 -484 479 -494 469z"/>
<path d="M3882 4017 c-387 -387 -481 -486 -470 -495 11 -9 111 86 497 472 430
430 499 506 463 506 -4 0 -224 -217 -490 -483z"/>
<path d="M1634 4125 c-4 -9 -5 -17 -3 -19 2 -1 159 -92 349 -201 190 -109 452
-261 583 -337 132 -76 243 -138 247 -138 4 0 10 6 13 14 4 9 -87 66 -286 181
-161 93 -416 240 -567 328 -350 202 -329 192 -336 172z"/>
<path d="M4290 3934 c-195 -113 -454 -262 -575 -331 -270 -155 -256 -146 -245
-163 11 -17 -51 -50 580 314 267 154 513 296 547 315 58 33 75 53 55 65 -4 2
-167 -88 -362 -200z"/>
<path d="M4225 3588 c-49 -3 -126 -14 -170 -23 -227 -47 -514 -175 -613 -274
-45 -46 -40 -57 11 -23 100 69 279 144 443 185 198 50 404 56 583 17 l54 -12
-7 -172 c-4 -94 -16 -322 -26 -506 -11 -184 -20 -365 -20 -402 0 -93 -3 -98
-61 -98 -149 0 -428 -50 -597 -106 -124 -42 -298 -128 -380 -188 -72 -54 -162
-135 -162 -147 0 -5 30 11 68 35 166 108 404 204 603 246 145 30 248 41 445
47 l182 6 7 126 c3 69 17 302 30 516 13 215 27 463 31 552 l7 162 -34 14 c-96
39 -244 56 -394 45z"/>
<path d="M1735 3571 c-38 -10 -83 -23 -99 -30 l-29 -12 7 -162 c4 -89 18 -340
31 -557 13 -217 27 -449 31 -516 l6 -121 182 -6 c197 -6 300 -17 445 -47 199
-42 437 -138 604 -246 37 -24 67 -40 67 -35 0 5 -28 35 -62 66 -248 222 -614
349 -1093 378 l-40 2 -3 65 c-1 36 -11 227 -22 425 -11 198 -23 433 -26 521
l-7 162 54 11 c179 40 376 35 576 -14 160 -39 349 -117 451 -187 50 -34 55
-23 10 23 -72 71 -248 163 -428 223 -167 55 -239 68 -420 72 -137 3 -177 1
-235 -15z"/>
<path d="M1490 3368 c-19 -5 -36 -11 -37 -12 -3 -2 28 -879 43 -1241 l7 -160
253 -2 c333 -2 556 -22 809 -74 120 -25 305 -78 394 -114 36 -13 66 -23 68
-21 2 1 -21 19 -51 39 -269 178 -692 280 -1211 291 l-150 3 -3 64 c-12 310
-34 826 -44 1012 -13 250 -7 235 -78 215z"/>
<path d="M4697 3258 c-10 -179 -37 -783 -45 -998 l-7 -185 -35 2 c-74 6 -431
-18 -560 -37 -245 -36 -474 -101 -634 -182 -80 -40 -189 -108 -183 -114 2 -2
39 10 83 27 170 65 429 125 663 154 169 20 531 38 667 33 l111 -4 7 155 c3 86
13 345 21 576 8 231 17 477 20 546 l6 126 -39 11 c-71 21 -68 25 -75 -110z"/>
<path d="M1930 3300 c0 -22 2 -22 58 -16 76 9 243 -9 369 -39 163 -39 354
-121 481 -206 38 -25 42 -26 42 -10 0 33 -172 132 -344 198 -148 57 -280 83
-453 90 l-153 6 0 -23z"/>
<path d="M4035 3309 c-158 -23 -342 -84 -490 -163 -126 -67 -165 -94 -165
-116 0 -18 3 -17 43 9 231 156 627 270 850 245 54 -6 57 -5 57 15 0 20 -4 21
-117 20 -65 -1 -145 -5 -178 -10z"/>
<path d="M1337 3226 l-49 -10 7 -125 c6 -127 25 -1060 25 -1246 l0 -100 582 0
c659 0 792 -10 1156 -80 15 -3 -2 9 -38 26 -132 62 -364 113 -660 144 -175 19
-603 33 -791 27 l-136 -4 -7 343 c-4 189 -9 362 -11 384 -2 22 -7 150 -11 285
-3 135 -9 272 -13 305 l-6 60 -48 -9z"/>
<path d="M4866 3146 c-8 -116 -36 -1024 -36 -1175 l0 -114 -132 6 c-168 7
-610 -8 -803 -28 -275 -28 -494 -75 -639 -136 -42 -18 -75 -33 -73 -35 1 -2
61 8 132 21 285 52 423 60 1048 60 l577 0 0 105 c0 186 19 1111 25 1240 l7
126 -50 10 -50 10 -6 -90z"/>
<path d="M1950 3040 c0 -20 4 -22 43 -18 72 8 256 -11 362 -36 159 -39 326
-111 468 -202 56 -36 67 -41 67 -25 0 34 -206 154 -370 214 -135 50 -272 77
-432 84 l-138 6 0 -23z"/>
<path d="M4015 3044 c-193 -30 -404 -110 -572 -219 -48 -31 -73 -53 -73 -66 0
-16 10 -12 68 25 141 91 298 159 462 200 108 27 293 46 368 38 37 -4 42 -2 42
17 0 20 -5 21 -102 20 -57 -1 -143 -7 -193 -15z"/>
<path d="M1960 2782 c0 -21 4 -22 103 -22 245 0 517 -84 737 -227 41 -27 81
-52 88 -57 8 -5 12 -1 12 11 0 22 -119 102 -245 165 -173 87 -364 135 -572
145 -121 6 -123 6 -123 -15z"/>
<path d="M4060 2789 c-162 -21 -316 -67 -455 -137 -125 -62 -245 -143 -245
-164 0 -10 2 -18 3 -18 2 0 41 25 87 55 221 149 496 235 747 235 96 0 103 1
103 20 0 19 -6 20 -87 19 -49 -1 -117 -5 -153 -10z"/>
<path d="M1980 2511 c0 -19 6 -21 61 -21 99 0 264 -29 376 -65 134 -44 251
-102 385 -192 87 -57 108 -68 108 -53 0 25 -140 123 -271 190 -175 90 -355
139 -571 155 -85 7 -88 6 -88 -14z"/>
<path d="M4125 2520 c-103 -9 -227 -37 -335 -75 -169 -61 -440 -224 -440 -266
0 -17 11 -12 78 34 242 168 487 259 738 274 102 5 114 8 114 25 0 20 -3 20
-155 8z"/>
<path d="M898 1787 l-367 -532 1300 -3 c714 -1 1884 -1 2598 0 l1300 3 -367
532 -367 532 -3 -166 -3 -167 48 -70 c91 -138 303 -466 303 -471 0 -3 -994 -5
-2210 -5 -1215 0 -2210 2 -2210 5 0 3 79 126 175 274 l175 269 -2 166 -3 165
-367 -532z"/>
</g>
</svg>
